# AST/ASF file generated using VICON BodyLanguage
# -----------------------------------------------
:version 1.10
:name VICON
:units
  mass 1.0
  length 0.45
  angle deg
:documentation
   .ast/.asf automatically generated from VICON data using
   VICON BodyBuilder and BodyLanguage model FoxedUp or BRILLIANT.MOD
:root
   order TX TY TZ RX RY RZ
   axis XYZ
   position 0 0 0  
   orientation 0 0 0 
:bonedata
  begin
     id 1 
     name lhipjoint
     direction 0.646657 -0.683706 0.338203 
     length 2.4948 
     axis 0 0 0  XYZ
  end
  begin
     id 2 
     name lfemur
     direction 0.34202 -0.939693 0  
     length 6.79491  
     axis 0 0 20  XYZ
    dof rx ry rz
    limits (-160.0 20.0)
           (-70.0 70.0)
           (-60.0 70.0)
  end
  begin
     id 3 
     name ltibia
     direction 0.34202 -0.939693 0   
     length 7.56807   
     axis 0 0 20   XYZ
    dof rx
    limits (-10.0 170.0)
  end
  begin
     id 4 
     name lfoot
     direction 0.0679796 -0.186772 0.980048   
     length 2.53018   
     axis -90 7.62852e-016 20   XYZ
    dof rx rz
    limits (-45.0 90.0)
           (-70.0 20.0)
  end
  begin
     id 5 
     name ltoes
     direction 1.53625e-011 -4.21881e-011 1   
     length 1.26912   
     axis -90 7.62852e-016 20   XYZ
    dof rx
    limits (-90.0 20.0)
  end
  begin
     id 6 
     name rhipjoint
     direction -0.618868 -0.704065 0.348274   
     length 2.42265  
     axis 0 0 0  XYZ 
  end
  begin
     id 7 
     name rfemur
     direction -0.34202 -0.939693 0   
     length 6.73814   
     axis 0 0 -20   XYZ
    dof rx ry rz
    limits (-160.0 20.0)
           (-70.0 70.0)
           (-70.0 60.0)
  end
  begin
     id 8 
     name rtibia
     direction -0.34202 -0.939693 0   
     length 7.66799   
     axis 0 0 -20   XYZ
    dof rx
    limits (-10.0 170.0)
 end
 begin
     id 9 
     name rfoot
     direction -0.0727352 -0.199838 0.977125   
     length 2.57224  
     axis -90 -7.62852e-016 -20   XYZ
    dof rx rz
    limits (-45.0 90.0)
           (-20.0 70.0)
  end
  begin
     id 10 
     name rtoes
     direction -1.53501e-011 -4.21858e-011 1   
     length 1.28858   
     axis -90 -7.62852e-016 -20   XYZ
    dof rx
    limits (-90.0 20.0)
  end
  begin
     id 11 
     name lowerback
     direction -0.0172471 0.995767 -0.0902851   
     length 2.20206   
     axis 0 0 0   XYZ
    dof rx ry rz
    limits (-20.0 45.0)
           (-30.0 30.0)
           (-30.0 30.0)
  end
  begin
     id 12 
     name upperback
     direction -0.000110737 0.999714 0.0239043   
     length 2.19523   
     axis 0 0 0   XYZ
    dof rx ry rz
    limits (-20.0 45.0)
           (-30.0 30.0)
           (-30.0 30.0)
  end
  begin
     id 13 
     name thorax
     direction 0.00704869 0.997783 0.0661741   
     length 2.21977   
     axis 0 0 0   XYZ
    dof rx ry rz
    limits (-20.0 45.0)
           (-30.0 30.0)
           (-30.0 30.0)
  end
  begin
     id 14 
     name lowerneck
     direction -0.00407501 0.995527 0.0943846   
     length 1.83142   
     axis 0 0 0   XYZ
    dof rx ry rz
    limits (-20.0 45.0)
           (-30.0 30.0)
           (-30.0 30.0)
  end
  begin
     id 15 
     name upperneck
     direction 0.0640586 0.986486 -0.150807   
     length 1.84616   
     axis 0 0 0   XYZ
    dof rx ry rz
    limits (-20.0 45.0)
           (-30.0 30.0)
           (-30.0 30.0)
  end
  begin
     id 16
     name head
     direction 0.0188017 0.99791 -0.0618239  
     length 1.85932  
     axis 0 0 0   XYZ
    dof rx ry rz
    limits (-20.0 45.0)
           (-30.0 30.0)
           (-30.0 30.0)
  end
  begin
     id 17 
     name lclavicle
     direction 0.976074 0.206905 0.066852  
     length 3.81043  
     axis 0 0 0   XYZ
    dof ry rz
    limits (-20.0 10.0)
           (0.0 20.0)
  end
  begin
     id 18 
     name lhumerus
     direction 1 -4.48971e-011 1.86916e-027   
     length 5.37587   
     axis 180 -30 -90   XYZ
    dof rx ry rz
    limits (-60.0 90.0)
           (-90.0 90.0)
           (-90.0 90.0)
  end
  begin
     id 19
     name lradius
     direction 1 -4.48968e-011 1.69187e-027   
     length 3.35977   
     axis 180 -30 -90   XYZ
    dof rx
    limits (-10.0 170.0)
  end
  begin
     id 20
     name lwrist
     direction 1 -4.48968e-011 5.8978e-027   
     length 1.67988   
     axis -3.27506e-015 90 90   XYZ
    dof ry
    limits (-180.0 0.0)
 end
  begin
     id 21 
     name lhand
     direction 1 -4.49028e-011 1.18071e-026   
     length 0.561859   
     axis -7.52654e-015 90 90   XYZ
    dof rx rz
    limits (-90.0 90.0)
           (-45.0 45.0)
  end
  begin
     id 22 
     name lfingers
     direction 1 -4.48927e-011 2.35758e-026   
     length 0.452985   
     axis -1.50534e-014 90 90   XYZ
    dof rx
    limits (0.0 90.0)
  end
  begin
     id 23
     name lthumb
     direction 0.707107 -6.34898e-011 0.707107   
     length 0.650399   
     axis -90 45 5.69224e-014   XYZ
    dof rx rz
    limits (-45.0 45.0)
           (-45.0 45.0)
  end
  begin
     id 24 
     name rclavicle
     direction -0.988403 0.151789 0.00439714   
     length 3.6942  
     axis 0 0 0   XYZ 
    dof ry rz
    limits (-10.0 20.0)
           (-20.0 0.0)
  end
  begin
     id 25 
     name rhumerus
     direction -1 -4.48978e-011 1.62495e-027  
     length 5.22819   
     axis 180 30 90   XYZ
    dof rx ry rz
    limits (-90.0 60.0)
           (-90.0 90.0)
           (-90.0 90.0)
  end
  begin
     id 26 
     name rradius
     direction -1 -4.48961e-011 3.47796e-027   
     length 3.40764   
     axis 180 30 90   XYZ
    dof rx
    limits (-10.0 170.0)
  end
  begin
     id 27 
     name rwrist
     direction -1 -4.48949e-011 5.89602e-027   
     length 1.70382   
     axis -3.27506e-015 -90 -90   XYZ
    dof ry
    limits (-180.0 0.0)
  end
  begin
     id 28
     name rhand
     direction -1 -4.48977e-011 1.17973e-026   
     length 0.583255   
     axis -7.52654e-015 -90 -90   XYZ
    dof rx rz
    limits (-90.0 90.0)
           (-45.0 45.0)
  end
  begin
     id 29
     name rfingers
     direction -1 -4.49099e-011 2.36408e-026   
     length 0.470235   
     axis -1.50534e-014 -90 -90   XYZ
    dof rx
    limits (0.0 90.0)
  end
  begin
     id 30
     name rthumb
     direction -0.707107 -6.35011e-011 0.707107   
     length 0.675167   
     axis -90 -45 -5.69224e-014   XYZ
    dof rx rz
    limits (-45.0 45.0)
           (-45.0 45.0)
  end
:hierarchy
  begin
    root lhipjoint rhipjoint lowerback
    lhipjoint lfemur
    lfemur ltibia
    ltibia lfoot
    lfoot ltoes
    rhipjoint rfemur
    rfemur rtibia
    rtibia rfoot
    rfoot rtoes
    lowerback upperback
    upperback thorax
    thorax lowerneck lclavicle rclavicle
    lowerneck upperneck
    upperneck head
    lclavicle lhumerus
    lhumerus lradius
    lradius lwrist
    lwrist lhand lthumb
    lhand lfingers
    rclavicle rhumerus
    rhumerus rradius
    rradius rwrist
    rwrist rhand rthumb
    rhand rfingers
  end

#!OML:ASF G:\JayActor3\Patient Classification 1\Patient 1\Session 2\male.ASF
:FULLY-SPECIFIED
:DEGREES
750
root -34.7418 16.4011 -5.64437 357.632 -132.361 -363.484
lowerback 3.2243 2.00714 2.20471
upperback 1.53698 2.70949 -0.248923
thorax -0.114508 1.35545 -1.57477
lowerneck -11.0661 -3.75411 -4.98963
upperneck 3.87985 -5.81113 15.3431
head 3.61107 -2.44027 5.14563
rclavicle 1.80397e-014 -3.18055e-015
rhumerus -49.4256 16.9028 -92.1249
rradius 46.5688
rwrist -8.25779
rhand -22.8628 4.17453
rfingers 7.12502
rthumb 3.5756 -25.7752
lclavicle 1.80397e-014 -3.18055e-015
lhumerus -47.2265 -33.4355 96.2447
lradius 39.4983
lwrist 23.7313
lhand -12.0134 20.415
lfingers 7.12502
lthumb 14.0441 49.9206
rfemur -15.331 -0.0726588 29.4833
rtibia 39.9181
rfoot -27.3505 -18.5433
rtoes 29.9775
lfemur -21.376 -5.26704 -15.8968
ltibia 51.8432
lfoot -13.7852 12.2292
ltoes -20.3816
751
root -34.8497 16.4183 -5.63143 358.07 -135.186 -363.688
lowerback 3.14725 1.99726 2.13046
upperback 1.55864 2.69105 -0.333011
thorax -0.049456 1.34678 -1.61528
lowerneck -10.9946 -4.10155 -5.31075
upperneck 3.6365 -6.26721 15.7341
head 3.60056 -2.67703 5.28731
rclavicle 7.10562e-014 1.98785e-015
rhumerus -49.0404 18.4487 -92.5698
rradius 47.9504
rwrist -7.94483
rhand -22.6143 4.49113
rfingers 7.12502
rthumb 3.81559 -25.4545
lclavicle 7.10562e-014 1.98785e-015
lhumerus -48.7081 -32.1781 96.3801
lradius 40.1433
lwrist 24.2497
lhand -12.2066 20.4947
lfingers 7.12502
lthumb 13.8579 50.013
rfemur -15.3822 1.32684 29.1086
rtibia 40.1222
rfoot -26.7171 -17.5048
rtoes 29.4664
lfemur -21.2983 -7.3965 -15.1954
ltibia 49.3166
lfoot -13.7862 9.87626
ltoes -22.3622
752
root -34.9563 16.4304 -5.61982 358.46 -138.048 -363.813
lowerback 3.04351 1.96084 2.04752
upperback 1.59488 2.63625 -0.399481
thorax 0.042607 1.32002 -1.63063
lowerneck -10.9159 -4.47261 -5.6746
upperneck 3.37285 -6.75872 16.1997
head 3.59517 -2.9323 5.4566
rclavicle 1.20738e-013 -7.95139e-016
rhumerus -48.5205 20.0312 -92.9911
rradius 49.24
rwrist -7.60407
rhand -22.345 4.78275
rfingers 7.12502
rthumb 4.07561 -25.158
lclavicle 1.20738e-013 -7.95139e-016
lhumerus -50.0294 -30.6657 96.3705
lradius 40.7978
lwrist 24.6095
lhand -12.4771 20.5084
lfingers 7.12502
lthumb 13.5972 50.0443
rfemur -15.5462 2.75264 28.7678
rtibia 40.4305
rfoot -26.0339 -16.4967
rtoes 28.6996
lfemur -21.1833 -9.52924 -14.391
ltibia 46.8851
lfoot -13.8274 7.28619
ltoes -24.5718
753
root -35.0628 16.4374 -5.60933 358.835 -140.965 -363.902
lowerback 2.91072 1.89892 1.93991
upperback 1.63209 2.54665 -0.453453
thorax 0.148733 1.27571 -1.61765
lowerneck -10.7778 -4.88304 -6.09308
upperneck 3.06902 -7.30367 16.7341
head 3.58396 -3.2186 5.65295
rclavicle -1.04983e-014 9.93923e-015
rhumerus -47.9047 21.647 -93.399
rradius 50.4372
rwrist -7.3095
rhand -22.0568 5.01638
rfingers 7.12502
rthumb 4.35388 -24.9189
lclavicle -1.04983e-014 9.93923e-015
lhumerus -51.2199 -28.9143 96.2514
lradius 41.4226
lwrist 24.8659
lhand -12.8554 20.4706
lfingers 7.12502
lthumb 13.2325 50.0305
rfemur -15.8238 4.16574 28.4225
rtibia 40.8452
rfoot -25.3765 -15.4355
rtoes 27.8987
lfemur -21.031 -11.5726 -13.5591
ltibia 44.621
lfoot -13.9233 4.65607
ltoes -26.9071
754
root -35.1678 16.4382 -5.59873 359.195 -143.933 -363.932
lowerback 2.76171 1.81424 1.82801
upperback 1.65635 2.42727 -0.486969
thorax 0.248501 1.21622 -1.58077
lowerneck -10.6001 -5.28633 -6.80614
upperneck 2.85359 -7.84762 17.5617
head 3.62463 -3.4995 5.99249
rclavicle -1.97294e-014 4.37326e-015
rhumerus -47.1735 23.2728 -93.7886
rradius 51.5021
rwrist -7.12053
rhand -21.7765 5.22886
rfingers 7.12502
rthumb 4.62461 -24.7007
lclavicle -1.97294e-014 4.37326e-015
lhumerus -52.2833 -26.9479 96.0399
lradius 41.9856
lwrist 25.0479
lhand -13.3948 20.4051
lfingers 7.12502
lthumb 12.7126 49.9981
rfemur -16.246 5.53694 28.1077
rtibia 41.3433
rfoot -24.6804 -14.4273
rtoes 26.865
lfemur -20.8843 -13.4201 -12.6968
ltibia 42.5966
lfoot -14.0502 2.00319
ltoes -29.0167
755
root -35.2712 16.4344 -5.58767 359.554 -146.948 -363.93
lowerback 2.60524 1.70579 1.70018
upperback 1.66657 2.27669 -0.504719
thorax 0.335851 1.14073 -1.51878
lowerneck -10.3054 -5.7204 -7.67743
upperneck 2.57579 -8.43364 18.5414
head 3.65749 -3.81008 6.40709
rclavicle -5.39949e-014 1.63003e-014
rhumerus -46.3253 24.8866 -94.1558
rradius 52.4337
rwrist -7.04234
rhand -21.4795 5.40598
rfingers 7.12502
rthumb 4.91132 -24.5171
lclavicle -5.39949e-014 1.63003e-014
lhumerus -53.238 -24.8054 95.7545
lradius 42.4869
lwrist 25.2144
lhand -14.0468 20.3323
lfingers 7.12502
lthumb 12.084 49.9633
rfemur -16.78 6.84208 27.7995
rtibia 41.8982
rfoot -24.0367 -13.3668
rtoes 25.8871
lfemur -20.7228 -15.0055 -11.8547
ltibia 40.8444
lfoot -14.1536 -0.583759
ltoes -30.3775
756
root -35.3718 16.4265 -5.57578 359.922 -150.02 -363.892
lowerback 2.43738 1.58183 1.56331
upperback 1.67294 2.10575 -0.515686
thorax 0.424869 1.05486 -1.44479
lowerneck -9.99434 -6.18603 -8.6284
upperneck 2.31048 -9.07555 19.588
head 3.71965 -4.15134 6.85359
rclavicle 9.40376e-014 -1.19271e-015
rhumerus -45.278 26.4232 -94.4853
rradius 53.1668
rwrist -7.02999
rhand -21.1597 5.60112
rfingers 7.12502
rthumb 5.22019 -24.3146
lclavicle 9.40376e-014 -1.19271e-015
lhumerus -54.057 -22.5399 95.3765
lradius 42.9187
lwrist 25.3858
lhand -14.7897 20.2551
lfingers 7.12502
lthumb 11.3675 49.927
rfemur -17.4175 8.08208 27.5091
rtibia 42.4784
rfoot -23.4302 -12.2738
rtoes 24.8967
lfemur -20.5413 -16.252 -11.0506
ltibia 39.3811
lfoot -14.1141 -3.00149
ltoes -30.9542
757
root -35.4687 16.4155 -5.5627 360.293 -153.141 -363.826
lowerback 2.27807 1.4479 1.41386
upperback 1.67967 1.92181 -0.527378
thorax 0.509399 0.962172 -1.36528
lowerneck -9.64756 -6.69865 -9.53961
upperneck 1.98988 -9.79427 20.6079
head 3.78282 -4.5394 7.27939
rclavicle -5.37464e-014 4.37326e-015
rhumerus -44.019 27.8267 -94.7742
rradius 53.698
rwrist -7.06286
rhand -20.8125 5.86338
rfingers 7.12502
rthumb 5.5554 -24.0438
lclavicle -5.37464e-014 4.37326e-015
lhumerus -54.709 -20.1472 94.8635
lradius 43.2473
lwrist 25.5098
lhand -15.6251 20.1578
lfingers 7.12502
lthumb 10.5618 49.8724
rfemur -18.1232 9.27719 27.2359
rtibia 43.0671
rfoot -22.9122 -11.0967
rtoes 24.0777
lfemur -20.3017 -17.1059 -10.3182
ltibia 38.1847
lfoot -13.8732 -5.11906
ltoes -30.9046
758
root -35.5613 16.4022 -5.54772 360.664 -156.291 -363.739
lowerback 2.15402 1.30392 1.24126
upperback 1.68616 1.72478 -0.544975
thorax 0.573941 0.862329 -1.28035
lowerneck -9.27323 -7.28016 -10.2359
upperneck 1.5785 -10.6191 21.4532
head 3.82443 -4.99141 7.60055
rclavicle -1.70955e-014 9.54166e-015
rhumerus -42.5546 29.0349 -95.0238
rradius 54.0292
rwrist -7.08364
rhand -20.4469 6.24901
rfingers 7.12502
rthumb 5.90834 -23.6486
lclavicle -1.70955e-014 9.54166e-015
lhumerus -55.1983 -17.6609 94.2093
lradius 43.4626
lwrist 25.586
lhand -16.4812 20.0067
lfingers 7.12502
lthumb 9.73591 49.7617
rfemur -18.866 10.4531 26.9707
rtibia 43.6556
rfoot -22.4794 -9.82771
rtoes 23.4089
lfemur -19.9742 -17.5908 -9.67996
ltibia 37.2205
lfoot -13.4381 -6.91379
ltoes -30.2311
759
root -35.6499 16.3867 -5.52982 361.03 -159.465 -363.65
lowerback 2.06751 1.14687 1.04986
upperback 1.70097 1.5102 -0.580256
thorax 0.626562 0.753176 -1.20412
lowerneck -8.84114 -7.91646 -10.6797
upperneck 1.04175 -11.5269 22.1126
head 3.81883 -5.4993 7.80792
rclavicle 2.53202e-014 2.78299e-015
rhumerus -40.9023 30.0111 -95.2523
rradius 54.1701
rwrist -7.063
rhand -20.0828 6.7941
rfingers 7.12502
rthumb 6.25989 -23.0934
lclavicle 2.53202e-014 2.78299e-015
lhumerus -55.5179 -15.0932 93.3985
lradius 43.547
lwrist 25.6026
lhand -17.4064 19.8072
lfingers 7.12502
lthumb 8.84318 49.6019
rfemur -19.636 11.6242 26.6958
rtibia 44.2521
rfoot -22.1055 -8.47985
rtoes 22.7851
lfemur -19.5303 -17.6947 -9.1848
ltibia 36.4393
lfoot -12.9838 -8.19438
ltoes -29.8218
760
root -35.7356 16.3691 -5.50848 361.373 -162.665 -363.565
lowerback 2.05316 0.975793 0.830017
upperback 1.7137 1.27669 -0.624641
thorax 0.636916 0.633662 -1.12288
lowerneck -8.31712 -8.58492 -10.9663
upperneck 0.396314 -12.484 22.6602
head 3.76582 -6.04717 7.9474
rclavicle -4.90004e-014 -1.59028e-015
rhumerus -39.1462 30.744 -95.4865
rradius 54.1576
rwrist -6.98699
rhand -19.7562 7.50736
rfingers 7.12502
rthumb 6.5752 -22.3706
lclavicle -4.90004e-014 -1.59028e-015
lhumerus -55.7031 -12.4436 92.4589
lradius 43.4846
lwrist 25.5653
lhand -18.4582 19.5676
lfingers 7.12502
lthumb 7.82813 49.4027
rfemur -20.4172 12.7952 26.3996
rtibia 44.8661
rfoot -21.7765 -7.04576
rtoes 22.2006
lfemur -18.9404 -17.4508 -8.85349
ltibia 35.7958
lfoot -12.6783 -8.96618
ltoes -29.8641
761
root -35.8206 16.35 -5.48395 361.674 -165.891 -363.504
lowerback 2.1197 0.767967 0.566672
upperback 1.71494 0.993302 -0.659915
thorax 0.589577 0.488185 -1.00854
lowerneck -7.63549 -9.25419 -11.124
upperneck -0.378518 -13.4374 23.0841
head 3.63568 -6.61345 8.03185
rclavicle 6.01572e-014 -6.75868e-015
rhumerus -37.3756 31.2811 -95.7816
rradius 53.9991
rwrist -6.82958
rhand -19.5028 8.32737
rfingers 7.12502
rthumb 6.81979 -21.5428
lclavicle 6.01572e-014 -6.75868e-015
lhumerus -55.8058 -9.65396 91.4285
lradius 43.2684
lwrist 25.49
lhand -19.742 19.3305
lfingers 7.12502
lthumb 6.58885 49.208
rfemur -21.1965 13.9531 26.0534
rtibia 45.5136
rfoot -21.4949 -5.46837
rtoes 21.8022
lfemur -18.1813 -16.9129 -8.7199
ltibia 35.2441
lfoot -12.6392 -9.22696
ltoes -30.4148
762
root -35.9067 16.329 -5.45777 361.911 -169.168 -363.472
lowerback 2.26984 0.530851 0.260429
upperback 1.71842 0.668533 -0.686278
thorax 0.498637 0.321087 -0.860446
lowerneck -6.82872 -9.86395 -11.5723
upperneck -1.16653 -14.324 23.7341
head 3.51773 -7.15861 8.25388
rclavicle -1.35174e-014 -1.07344e-014
rhumerus -35.6573 31.6517 -96.1517
rradius 53.7552
rwrist -6.64007
rhand -19.3826 9.1862
rfingers 7.12502
rthumb 6.93579 -20.6802
lclavicle -1.35174e-014 -1.07344e-014
lhumerus -55.8359 -6.77242 90.3323
lradius 42.9068
lwrist 25.4486
lhand -21.2998 19.1572
lfingers 7.12502
lthumb 5.08484 49.0762
rfemur -21.9682 15.0549 25.6574
rtibia 46.2019
rfoot -21.2064 -3.80137
rtoes 21.3273
lfemur -17.2344 -16.1179 -8.79826
ltibia 34.7464
lfoot -12.915 -8.99427
ltoes -31.3271
